<?xml version="1.0" standalone="no"?>
<!DOCTYPE svg PUBLIC "-//W3C//DTD SVG 20010904//EN"
 "http://www.w3.org/TR/2001/REC-SVG-20010904/DTD/svg10.dtd">
<svg version="1.0" xmlns="http://www.w3.org/2000/svg"
 width="256.000000pt" height="256.000000pt" viewBox="0 0 256.000000 256.000000"
 preserveAspectRatio="xMidYMid meet">

<g transform="translate(0.000000,256.000000) scale(0.100000,-0.100000)"
fill="#fff" stroke="none">
<path d="M732 2388 c-9 -9 -12 -237 -12 -963 0 -1084 6 -1011 -84 -1101 -80
-79 -184 -104 -289 -68 -60 20 -129 82 -159 142 l-23 47 -5 569 c-5 528 -6
570 -22 580 -13 8 -23 8 -35 0 -17 -10 -18 -49 -18 -585 l0 -574 27 -57 c37
-79 98 -142 177 -181 l66 -32 925 0 925 0 66 32 c79 39 140 102 177 181 l27
57 3 969 c2 717 0 972 -9 982 -16 19 -1718 21 -1737 2z m1668 -991 c0 -1053 5
-983 -84 -1073 -89 -88 -42 -84 -899 -84 l-749 0 37 41 c21 23 49 67 64 98
l26 56 3 943 2 942 800 0 800 0 0 -923z"/>
<!-- <path d="M891 2147 c-8 -10 -11 -66 -9 -192 3 -157 5 -179 21 -189 12 -8 22
-8 35 0 14 9 18 31 22 132 l5 121 88 -129 c88 -130 109 -148 136 -116 8 9 11
69 9 191 -3 157 -5 179 -20 189 -13 8 -23 8 -35 0 -15 -9 -19 -30 -23 -113
l-5 -102 -75 108 c-65 94 -79 108 -106 111 -18 2 -36 -3 -43 -11z"/>
<path d="M1292 2148 c-19 -19 -17 -361 2 -377 9 -8 48 -11 111 -9 80 2 100 6
109 21 8 12 8 22 0 35 -9 13 -28 18 -83 20 l-71 3 0 39 0 39 51 3 c96 6 96 70
0 76 l-51 3 0 39 0 39 71 3 c55 2 74 7 83 21 8 12 8 22 0 35 -9 14 -29 18
-110 20 -69 2 -103 -1 -112 -10z"/>
<path d="M1589 2144 c-18 -22 47 -361 74 -378 30 -19 48 5 91 122 23 61 43
112 46 112 3 0 23 -51 46 -112 23 -62 49 -117 58 -123 36 -23 49 5 85 185 35
175 35 201 0 207 -28 5 -39 -15 -58 -105 -10 -51 -20 -95 -23 -97 -2 -2 -20
39 -40 93 -55 151 -81 151 -136 0 -20 -54 -38 -95 -40 -93 -3 2 -13 46 -23 97
-11 50 -25 96 -32 100 -19 12 -33 10 -48 -8z"/> -->
<!-- <path d="M2138 2144 c-38 -20 -60 -66 -52 -108 7 -40 36 -70 102 -106 36 -19
47 -31 47 -49 0 -53 -73 -53 -100 -1 -17 34 -54 40 -76 14 -11 -13 -10 -21 6
-50 29 -54 69 -78 132 -79 46 0 57 4 84 31 23 23 33 44 36 75 6 55 -18 89 -86
124 -55 27 -76 49 -67 70 7 19 55 19 79 1 23 -18 55 -10 62 16 18 55 -100 99
-167 62z"/> -->
<path d="M972 1508 c-16 -16 -15 -43 2 -57 9 -8 89 -11 271 -9 233 3 259 5
269 21 8 12 8 22 0 35 -10 15 -36 17 -270 20 -194 2 -263 -1 -272 -10z"/>
<path d="M1692 1508 c-16 -16 -15 -43 2 -57 9 -8 89 -11 271 -9 233 3 259 5
269 21 8 12 8 22 0 35 -10 15 -36 17 -270 20 -194 2 -263 -1 -272 -10z"/>
<path d="M972 1348 c-16 -16 -15 -43 2 -57 9 -8 89 -11 271 -9 233 3 259 5
269 21 8 12 8 22 0 35 -10 15 -36 17 -270 20 -194 2 -263 -1 -272 -10z"/>
<path d="M1692 1348 c-16 -16 -15 -43 2 -57 9 -8 89 -11 271 -9 233 3 259 5
269 21 8 12 8 22 0 35 -10 15 -36 17 -270 20 -194 2 -263 -1 -272 -10z"/>
<path d="M972 1188 c-16 -16 -15 -43 2 -57 9 -8 89 -11 271 -9 233 3 259 5
269 21 8 12 8 22 0 35 -10 15 -36 17 -270 20 -194 2 -263 -1 -272 -10z"/>
<path d="M1692 1188 c-16 -16 -15 -43 2 -57 9 -8 89 -11 271 -9 233 3 259 5
269 21 8 12 8 22 0 35 -10 15 -36 17 -270 20 -194 2 -263 -1 -272 -10z"/>
<path d="M972 1028 c-16 -16 -15 -43 2 -57 9 -8 89 -11 271 -9 233 3 259 5
269 21 8 12 8 22 0 35 -10 15 -36 17 -270 20 -194 2 -263 -1 -272 -10z"/>
<path d="M1692 1028 c-16 -16 -15 -43 2 -57 9 -8 89 -11 271 -9 233 3 259 5
269 21 8 12 8 22 0 35 -10 15 -36 17 -270 20 -194 2 -263 -1 -272 -10z"/>
<path d="M972 868 c-16 -16 -15 -43 2 -57 9 -8 89 -11 271 -9 233 3 259 5 269
21 8 12 8 22 0 35 -10 15 -36 17 -270 20 -194 2 -263 -1 -272 -10z"/>
<path d="M1692 868 c-16 -16 -15 -43 2 -57 9 -8 89 -11 271 -9 233 3 259 5
269 21 8 12 8 22 0 35 -10 15 -36 17 -270 20 -194 2 -263 -1 -272 -10z"/>
<path d="M972 708 c-16 -16 -15 -43 2 -57 9 -8 89 -11 271 -9 233 3 259 5 269
21 8 12 8 22 0 35 -10 15 -36 17 -270 20 -194 2 -263 -1 -272 -10z"/>
<path d="M1692 708 c-16 -16 -15 -43 2 -57 9 -8 89 -11 271 -9 233 3 259 5
269 21 8 12 8 22 0 35 -10 15 -36 17 -270 20 -194 2 -263 -1 -272 -10z"/>
<path d="M972 548 c-16 -16 -15 -43 2 -57 9 -8 89 -11 271 -9 233 3 259 5 269
20 8 13 8 23 0 35 -10 16 -36 18 -270 21 -194 2 -263 -1 -272 -10z"/>
<path d="M1692 548 c-16 -16 -15 -43 2 -57 9 -8 89 -11 271 -9 233 3 259 5
269 20 8 13 8 23 0 35 -10 16 -36 18 -270 21 -194 2 -263 -1 -272 -10z"/>
<path d="M572 2308 c-9 -9 -12 -226 -12 -916 0 -819 -2 -907 -16 -932 -47 -79
-161 -79 -208 0 -14 25 -16 87 -16 584 l0 555 71 3 c55 2 74 7 83 21 8 12 8
22 0 35 -9 14 -29 18 -109 20 -63 2 -102 -1 -111 -9 -12 -10 -14 -108 -14
-599 l0 -588 28 -53 c22 -43 38 -59 81 -81 68 -36 114 -36 182 0 43 22 59 38
81 81 l28 53 0 907 c0 941 0 931 -40 931 -9 0 -21 -5 -28 -12z"/>
</g>
</svg>
