<?xml version="1.0" encoding="UTF-8"?>
<svg version="1.1" xmlns="http://www.w3.org/2000/svg" width="32" height="32" fill="white">
    <path
        d="M0 0 C1.8125 0.5625 1.8125 0.5625 4 2 C4.37125 3.155 4.7425 4.31 5.125 5.5 C6.5827919 9.14605522 6.5827919 9.14605522 9.41015625 9.90234375 C11.94197737 10.39019114 14.43310721 10.76401924 17 11 C16.6640625 13.3984375 16.6640625 13.3984375 16 16 C15.13375 16.53625 14.2675 17.0725 13.375 17.625 C10.70399947 19.75852393 10.70399947 19.75852393 10.89453125 22.6953125 C11.1625503 25.48985776 11.51845613 28.23469857 12 31 C10.18359375 31.62890625 10.18359375 31.62890625 8 32 C7.030625 31.319375 6.06125 30.63875 5.0625 29.9375 C4.051875 29.298125 3.04125 28.65875 2 28 C-1.27396279 28.7613867 -3.19064465 30.12709643 -6 32 C-8.1875 31.625 -8.1875 31.625 -10 31 C-9.85820312 30.26394531 -9.71640625 29.52789063 -9.5703125 28.76953125 C-9.11680291 25.75806844 -8.80659867 23.04284759 -9 20 C-10.7237095 17.68757741 -12.56307954 16.64119133 -15 15 C-15 13.68 -15 12.36 -15 11 C-14.32453125 10.9484375 -13.6490625 10.896875 -12.953125 10.84375 C-7.56575535 10.30025091 -7.56575535 10.30025091 -3.48046875 7.12109375 C-2.51882415 5.10776291 -1.73536252 3.1043393 -1 1 C-0.67 0.67 -0.34 0.34 0 0 Z "
        fill="white" transform="translate(15,0)" />
</svg>